<svg version="1.1" id="Layer_1" xmlns="http://www.w3.org/2000/svg" xmlns:xlink="http://www.w3.org/1999/xlink" x="0px" y="0px" width="16px" height="16px" viewBox="0 0 16 16" enable-background="new 0 0 16 16" xml:space="preserve">
  <g id="main">
    <g id="icon">
      <path d="M6.728,0.03887L5.98,0.1531L5.259,0.3387L4.568,0.5918L3.912,0.9086L3.294,1.285L2.717,1.718L2.186,2.203L1.703,2.736L1.273,3.314L0.8992,3.933L0.5852,4.588L0.3346,5.276L0.1512,5.993L0.03848,6.736L0,7.5L0.03887,8.264L0.1531,9.007L0.3387,9.724L0.5918,10.41L0.9086,11.07L1.285,11.69L1.718,12.26L2.203,12.8L2.736,13.28L3.314,13.71L3.933,14.09L4.588,14.41L5.276,14.66L5.993,14.85L6.736,14.96L7.262,14.99L6.98,14.63L6.641,14.07L6.368,13.48L6.167,12.85L6.043,12.19L6,11.5L6.029,10.94L6.112,10.39L6.248,9.866L6.433,9.361L6.608,8.999L6.326,8.674L5.756,8.172L5.105,7.796L4.394,7.55L3.643,7.44L3.449,7.366L3.375,7.172L3.375,5.991L3.402,5.882L3.469,5.804L3.556,5.765L3.643,5.777L4.199,5.824L4.737,5.924L5.257,6.075L5.756,6.273L6.684,6.803L7.506,7.494L7.609,7.616L7.613,7.613L8.004,7.257L8.427,6.941L8.687,6.782L8.472,6.548L7.983,6.104L7.455,5.706L6.891,5.356L6.294,5.057L5.667,4.812L5.015,4.625L4.339,4.499L3.643,4.436L3.449,4.362L3.375,4.167L3.375,2.987L3.403,2.877L3.476,2.792L3.697,2.719L4.554,2.783L5.389,2.933L6.199,3.164L6.976,3.47L7.716,3.846L8.412,4.288L9.06,4.79L9.652,5.348L10.21,5.956L10.34,6.126L10.39,6.112L10.94,6.029L11.5,6L12.19,6.043L12.85,6.167L13.48,6.368L14.07,6.641L14.63,6.98L14.99,7.262L14.96,6.736L14.85,5.993L14.66,5.276L14.41,4.588L14.09,3.933L13.71,3.314L13.28,2.736L12.8,2.203L12.26,1.718L11.69,1.285L11.07,0.9086L10.41,0.5918L9.724,0.3387L9.007,0.1531L8.264,0.03887L7.5,0zM5.025,9.345L5.234,9.445L5.414,9.586L5.655,9.955L5.736,10.44L5.655,10.89L5.414,11.25L5.045,11.49L4.555,11.57L4.086,11.49L3.876,11.39L3.697,11.25L3.456,10.89L3.375,10.44L3.456,9.975L3.556,9.766L3.697,9.586L4.066,9.345L4.555,9.264zz" fill="#E78155"/>
      <path d="M3.476,2.793L3.403,2.877L3.375,2.987L3.375,4.167L3.449,4.362L3.643,4.436L4.339,4.499L5.015,4.625L5.667,4.812L6.294,5.057L6.891,5.356L7.455,5.706L7.983,6.104L8.472,6.548L8.687,6.783L8.88,6.665L9.361,6.433L9.866,6.248L10.34,6.126L10.21,5.956L9.652,5.348L9.06,4.79L8.412,4.288L7.716,3.846L6.976,3.47L6.199,3.164L5.389,2.933L4.554,2.783L3.697,2.719zM3.469,5.804L3.402,5.883L3.375,5.991L3.375,7.172L3.449,7.366L3.643,7.44L4.394,7.55L5.105,7.796L5.756,8.172L6.326,8.674L6.608,8.999L6.665,8.88L6.941,8.427L7.257,8.004L7.609,7.616L7.506,7.494L6.684,6.803L5.756,6.273L5.257,6.075L4.737,5.924L4.199,5.824L3.643,5.777L3.556,5.765zM4.066,9.345L3.697,9.586L3.556,9.766L3.456,9.975L3.375,10.44L3.456,10.89L3.697,11.25L3.876,11.39L4.086,11.49L4.555,11.57L5.045,11.49L5.414,11.25L5.655,10.89L5.736,10.44L5.655,9.955L5.414,9.586L5.234,9.445L5.025,9.345L4.555,9.264zz" fill="#FFFFFF"/>
    </g>
    <g id="overlay">
      <path d="M11.507,16c-2.4774,0,-4.493,-2.0156,-4.493,-4.4931c0,-2.4775,2.0155,-4.4931,4.493,-4.4931S16,9.0295,16,11.5069C16,13.9844,13.9845,16,11.507,16zM11.2436,14.9741c0.094,0.0072,0.1805,0.0187,0.2634,0.0187c0.0588,0,0.1206,-0.0138,0.1921,-0.0179c0.0713,-0.2055,0.3091,-0.8749,0.4852,-1.7749H10.76C10.9327,14.1,11.1602,14.7337,11.2436,14.9741zM12.9919,13.2c-0.1399,0.7,-0.3182,1.264,-0.431,1.6056C13.3947,14.5408,14.109,14,14.544,13.2H12.9919zM8.4701,13.2c0.4305,0.8,1.136,1.3298,1.9591,1.5979c-0.1155,-0.3412,-0.2975,-0.8979,-0.4403,-1.5979H8.4701zM14.8539,12.5c0.0974,-0.3,0.1468,-0.6624,0.1468,-1.0036c0,-0.3388,-0.0486,-0.6964,-0.1446,-0.9964h-1.7328c0.0463,0.3,0.0698,0.6879,0.0698,0.9919c0,0.305,-0.0255,0.6081,-0.0758,1.0081H14.8539zM12.3115,12.5c0.0531,-0.4,0.0799,-0.725,0.0799,-1.0382c0,-0.2949,-0.0227,-0.6618,-0.0676,-0.9618h-1.7031c-0.0449,0.3,-0.0676,0.6669,-0.0676,0.9618c0,0.313,0.0269,0.6382,0.0799,1.0382H12.3115zM9.86,12.5c-0.0517,-0.4,-0.0779,-0.7031,-0.0779,-1.0081c0,-0.3042,0.0241,-0.6919,0.0717,-0.9919H8.1579c-0.0959,0.3,-0.1446,0.6576,-0.1446,0.9964c0,0.3412,0.0494,0.7036,0.1468,1.0036H9.86zM14.548,9.8c-0.4318,-0.8,-1.1419,-1.34,-1.9716,-1.6078C12.6893,8.534,12.8669,9.1,13.003,9.8H14.548zM12.2026,9.8c-0.1681,-0.9,-0.4025,-1.5314,-0.4888,-1.7745c-0.0772,-0.0048,-0.1437,-0.0097,-0.2069,-0.0097c-0.0889,0,-0.1803,0.0078,-0.2782,0.0157C11.143,8.2739,10.9092,8.9,10.7417,9.8H12.2026zM9.9775,9.8c0.1389,-0.7,0.3201,-1.2589,0.4356,-1.6c-0.8186,0.2711,-1.5197,0.8,-1.947,1.6H9.9775z" fill="#797979"/>
    </g>
  </g>
</svg>