<svg version="1.1" id="Layer_1" xmlns="http://www.w3.org/2000/svg" xmlns:xlink="http://www.w3.org/1999/xlink" x="0px" y="0px" width="32px" height="32px" viewBox="0 0 32 32" enable-background="new 0 0 32 32" xml:space="preserve">
  <g id="main">
    <g id="icon">
      <path d="M13.91,0.09492L12.36,0.3309L10.87,0.7145L9.443,1.238L8.087,1.892L6.809,2.671L5.617,3.565L4.519,4.568L3.522,5.67L2.633,6.864L1.861,8.142L1.212,9.496L0.6939,10.92L0.3148,12.4L0.08184,13.94L0.002344,15.51L0.08281,17.09L0.3188,18.63L0.7023,20.11L1.225,21.53L1.88,22.89L2.659,24.17L3.553,25.36L4.555,26.46L5.658,27.46L6.852,28.36L8.13,29.14L9.484,29.79L10.91,30.31L12.39,30.7L13.92,30.93L15.5,31.01L17.08,30.93L18.62,30.7L19.13,30.57L18.59,29.96L18.01,29.1L17.54,28.16L17.19,27.16L16.97,26.1L16.9,25L16.94,24.17L17.06,23.37L17.19,22.88L16.08,22.88L15.89,22.84L15.73,22.74L15.63,22.59L15.6,22.39L15.54,21.71L15.42,21.04L15.24,20.38L15.01,19.75L14.71,19.15L14.36,18.58L13.94,18.04L13.47,17.55L12.97,17.07L12.44,16.64L11.87,16.27L11.26,15.96L10.63,15.71L9.98,15.52L9.309,15.39L8.624,15.32L8.426,15.29L8.273,15.19L8.175,15.03L8.14,14.84L8.14,12.71L8.188,12.51L8.309,12.37L8.467,12.3L8.624,12.32L9.627,12.4L10.6,12.58L11.54,12.86L12.44,13.21L13.3,13.65L14.11,14.17L14.88,14.76L15.6,15.42L16.26,16.13L16.85,16.9L17.36,17.72L17.8,18.58L18.16,19.48L18.4,20.31L18.75,19.85L19.27,19.27L19.85,18.75L20.34,18.38L20.04,17.62L19.5,16.55L18.87,15.54L18.15,14.59L17.34,13.71L16.46,12.91L15.51,12.19L14.49,11.56L13.41,11.02L12.28,10.58L11.1,10.24L9.88,10.01L8.624,9.896L8.426,9.861L8.273,9.762L8.175,9.61L8.14,9.411L8.14,7.28L8.19,7.082L8.321,6.929L8.508,6.83L8.721,6.796L10.27,6.912L11.78,7.183L13.24,7.599L14.64,8.152L15.98,8.832L17.24,9.629L18.4,10.54L19.47,11.54L20.48,12.64L21.39,13.82L22.19,15.09L22.86,16.42L23.14,17.12L23.37,17.06L24.17,16.94L25,16.9L26.1,16.97L27.16,17.19L28.16,17.54L29.1,18.01L29.96,18.59L30.56,19.12L30.69,18.63L30.92,17.09L31,15.51L30.92,13.94L30.69,12.4L30.3,10.92L29.78,9.496L29.12,8.142L28.35,6.864L27.45,5.67L26.45,4.568L25.35,3.565L24.15,2.671L22.88,1.892L21.52,1.238L20.1,0.7145L18.62,0.3309L17.08,0.09492L15.5,0.01445zM10.7,18.65L11.12,18.76L11.5,18.94L11.82,19.2L12.08,19.51L12.26,19.86L12.37,20.27L12.4,20.75L12.37,21.16L12.26,21.54L12.08,21.89L11.82,22.2L11.51,22.45L11.16,22.63L10.74,22.74L10.27,22.78L9.838,22.74L9.423,22.63L9.045,22.45L8.721,22.2L8.467,21.89L8.285,21.54L8.176,21.16L8.14,20.75L8.176,20.31L8.285,19.9L8.467,19.52L8.721,19.2L9.031,18.94L9.387,18.76L9.797,18.65L10.27,18.61zz" fill="#E78155"/>
      <path d="M8.508,6.831L8.322,6.929L8.19,7.082L8.14,7.28L8.14,9.411L8.175,9.61L8.273,9.762L8.426,9.861L8.624,9.896L9.88,10.01L11.1,10.24L12.28,10.58L13.41,11.02L14.49,11.56L15.51,12.19L16.46,12.91L17.34,13.71L18.15,14.59L18.87,15.54L19.5,16.55L20.04,17.62L20.34,18.38L20.47,18.28L21.14,17.88L21.85,17.54L22.59,17.26L23.14,17.12L22.87,16.42L22.19,15.09L21.39,13.82L20.48,12.64L19.47,11.54L18.4,10.54L17.24,9.629L15.98,8.832L14.64,8.152L13.24,7.6L11.78,7.183L10.27,6.912L8.721,6.796zM8.31,12.37L8.188,12.51L8.14,12.71L8.14,14.84L8.175,15.03L8.273,15.19L8.426,15.29L8.624,15.32L9.309,15.39L9.98,15.52L10.63,15.71L11.26,15.96L11.87,16.27L12.44,16.64L12.97,17.07L13.47,17.55L13.94,18.04L14.36,18.58L14.71,19.15L15.01,19.75L15.24,20.38L15.42,21.04L15.54,21.71L15.6,22.39L15.63,22.59L15.73,22.74L15.89,22.84L16.08,22.88L17.19,22.88L17.26,22.59L17.54,21.85L17.88,21.14L18.28,20.47L18.4,20.31L18.16,19.48L17.8,18.58L17.36,17.72L16.85,16.9L16.26,16.13L15.6,15.42L14.88,14.76L14.11,14.17L13.3,13.65L12.44,13.21L11.54,12.86L10.6,12.58L9.627,12.4L8.624,12.32L8.467,12.3zM9.797,18.65L9.387,18.76L9.031,18.94L8.721,19.2L8.467,19.52L8.285,19.9L8.176,20.31L8.14,20.75L8.176,21.16L8.285,21.54L8.467,21.89L8.721,22.2L9.045,22.45L9.423,22.63L9.838,22.74L10.27,22.78L10.74,22.74L11.16,22.63L11.51,22.45L11.82,22.2L12.08,21.89L12.26,21.55L12.37,21.16L12.4,20.75L12.37,20.27L12.26,19.86L12.08,19.51L11.82,19.2L11.5,18.94L11.12,18.76L10.7,18.65L10.27,18.61zz" fill="#FFFFFF"/>
    </g>
    <g id="overlay">
      <path d="M25.007,18.0138c-3.8559,0,-6.993,3.1371,-6.993,6.9931c0,3.856,3.137,6.9931,6.993,6.9931S32,28.8629,32,25.0069C32,21.1508,28.863,18.0138,25.007,18.0138zM23.4161,24.939c0,-0.476,0.0367,-0.939,0.0962,-1.439h2.8798c0.0595,0.5,0.0962,0.963,0.0962,1.439c0,0.5095,-0.0445,1.061,-0.1152,1.561h-2.8416C23.4606,26,23.4161,25.4485,23.4161,24.939zM27.476,23.5h2.9201c0.132,0.5,0.2041,0.9762,0.2041,1.4935c0,0.522,-0.0734,1.0065,-0.2078,1.5065h-2.9259c0.0679,-0.5,0.1102,-1.0192,0.1102,-1.5136C27.5767,24.4951,27.5383,24,27.476,23.5zM30.0115,22.5h-2.6944c-0.2399,-1.3,-0.5849,-2.36,-0.7619,-2.8801C28.0679,20.0564,29.3186,21.1,30.0115,22.5zM25.3961,19.422c0.1358,0.3773,0.56,1.578,0.8381,3.078h-2.5641c0.2759,-1.4,0.6956,-2.6814,0.835,-3.0694c0.1655,-0.0148,0.3327,-0.0237,0.5019,-0.0237C25.138,19.4069,25.2674,19.4131,25.3961,19.422zM23.4221,19.6303c-0.183,0.5241,-0.5343,1.6697,-0.7792,2.8697h-2.6403C20.6899,21.1,21.9259,20.0733,23.4221,19.6303zM19.618,23.5h2.8617c-0.064,0.5,-0.1035,0.9951,-0.1035,1.4864c0,0.4944,0.0434,1.0136,0.1132,1.5136h-2.8677c-0.1344,-0.5,-0.2078,-0.9845,-0.2078,-1.5065C19.4139,24.4762,19.4859,24,19.618,23.5zM20.0092,27.5h2.651c0.2558,1.3,0.6165,2.375,0.7868,2.8638C21.9444,29.9265,20.7017,28.9,20.0092,27.5zM24.5281,30.5716c-0.1046,-0.2971,-0.536,-1.5716,-0.8299,-3.0716h2.508c-0.297,1.5,-0.7343,2.8007,-0.833,3.0802c-0.1212,0.0079,-0.243,0.0133,-0.3661,0.0133C24.8456,30.5935,24.6861,30.5851,24.5281,30.5716zM26.5311,30.374c0.1642,-0.4834,0.5184,-1.574,0.7692,-2.874h2.7046C29.3069,28.9,28.0498,29.9432,26.5311,30.374z" fill="#797979"/>
    </g>
  </g>
</svg>